<svg xmlns="http://www.w3.org/2000/svg" viewBox="0 0 237.88 261.74"><defs><style>.cls-1{fill:#010101;}.cls-2{fill:#fff;}.cls-3{fill:#b3b3b3;}.cls-4{fill:#e01f26;}.cls-5{fill:#191815;}</style></defs><title>Asset 3</title><g id="Layer_2" data-name="Layer 2"><g id="Layer_1-2" data-name="Layer 1"><g id="x0020_2" data-name="x0020 2"><g id="_1781979405120" data-name=" 1781979405120"><path class="cls-1" d="M55.88,1.71h32a6.06,6.06,0,0,1,6,6V58a6.06,6.06,0,0,1-6,6h-32a6.06,6.06,0,0,1-6-6V7.75A6.06,6.06,0,0,1,55.88,1.71Z"/><path class="cls-2" d="M53.19.44H87.52a4.76,4.76,0,0,1,4.75,4.75V57.68a4.76,4.76,0,0,1-4.75,4.75H53.19a4.76,4.76,0,0,1-4.75-4.75V5.19A4.76,4.76,0,0,1,53.19.44Z"/><path class="cls-3" d="M87.52.89H53.19a4.32,4.32,0,0,0-4.3,4.3V57.68a4.32,4.32,0,0,0,4.3,4.3H87.52a4.31,4.31,0,0,0,4.3-4.3V5.19a4.32,4.32,0,0,0-4.3-4.3ZM53.19,0H87.52a5.21,5.21,0,0,1,5.19,5.19V57.68a5.21,5.21,0,0,1-5.19,5.19H53.19A5.21,5.21,0,0,1,48,57.68V5.19A5.21,5.21,0,0,1,53.19,0Z"/><path class="cls-4" d="M53.74,7.34A4.64,4.64,0,0,1,55,3.87a3.79,3.79,0,0,1,2.79-1.06A3.59,3.59,0,0,1,60.46,4a3.91,3.91,0,0,1,1.12,2.77,7.16,7.16,0,0,1-.73,3.15A23.23,23.23,0,0,1,59,12.82q-.39.56-1.18,1.75l-.43.65c-.28.43-.49.76-.64,1a.81.81,0,0,0-.1.23h4.74v2.36H53.7V16.61a5.5,5.5,0,0,1,.53-.88l.55-.82.63-.9q.55-.75,1.74-2.41a16,16,0,0,0,1.67-2.82,4.84,4.84,0,0,0,.45-1.93,1.91,1.91,0,0,0-.41-1.23,1.45,1.45,0,0,0-1.16-.54,1.49,1.49,0,0,0-1.44,1.16,2.7,2.7,0,0,0-.14.92v.61H53.74Z"/><path class="cls-4" d="M78.15,33.75s.53.81,1.46,2.09l.08.11,0,0,.05.07.16.22h0l0,.05,0,.06.09.12h0l.09.11.05.07,0,0,.09.12v0l.08.1.07.09,0,0,.1.13,0,0,.07.09.09.11v0l.1.13,0,.06.06.08.11.14h0l.11.14.06.08,0,.06.11.14v0l.1.12.08.1.15.19,0,0,.19.23,0,0,.12.15,0,.06.07.09.12.15h0l.12.15.07.08.4.48,0,.05.13.16,0,0,.1.12.11.13,0,0,.14.16,0,.06.22.25h0l.66.75.05.06.41.45,0,0,.15.16.05.05.1.11.14.15,0,0,.46.49h0l.24.25h0l.06.06.16.16,0,0,.13.13.12.12,0,0,.21.21.11.11.14.14,0,0,.17.16.07.07.09.09.17.16a75.92,75.92,0,0,0-9.63,11.54H78v-.09h0v0h0l0,0,0,0h0l0,0,0,0h0v0l0,0,0,0h0l0,0,0,0,0,0h0l0,0,0,0,0,0h0l0,0,0,0,0,0h0l0,0,0,0v0l0,0,0,0h0l0,0,0,0,0,0h0l-.13-.19,0,0,0,0h0l0-.05,0-.05,0,0v0l0-.05,0-.05,0,0,0,0,0-.05,0-.06v0l0,0,0-.06a74.78,74.78,0,0,0-8.21-9.55A75.85,75.85,0,0,0,78.15,33.75Z"/><path class="cls-4" d="M57.92,21.85s.34.51.93,1.33l0,.07,0,0,0,0,.1.14h0l0,0,0,0,.06.07h0l.06.07,0,0,0,0,.06.08h0l0,.07,0,.06,0,0,.06.08,0,0,0,.06.06.07h0l.06.09,0,0,0,0,.07.09h0l.07.09,0,0,0,0,.07.09h0l.06.08.05.06.1.12,0,0,.12.15h0l.08.09,0,0,0,.06.08.09h0l.08.1,0,.05L61,26l0,0,.08.1,0,0,.07.08.07.08,0,0,.09.1,0,0,.14.16h0l.42.47,0,0,.26.29,0,0,.1.1,0,0,.06.07.09.09h0l.29.31h0l.15.16h0l0,0,.1.1v0l.08.09.07.08,0,0,.13.14.07.07.09.09h0l.1.1,0,0,.06.06.11.1a48.25,48.25,0,0,0-6.13,7.35h-.12v0h0v0h0v0h0v-.06h0l0,0v0h0l0,0,0,0v0h0l0,0,0,0h0l0,0,0,0h0v0l0,0,0,0h0l-.08-.12,0,0,0,0h0l0,0,0,0v0h0l0,0,0,0v0l0,0,0,0h0l0,0,0,0a47.71,47.71,0,0,0-5.23-6.08A48.45,48.45,0,0,0,57.92,21.85Z"/></g></g><path class="cls-1" d="M103.88,1.71h32a6.06,6.06,0,0,1,6,6V58a6.06,6.06,0,0,1-6,6h-32a6.06,6.06,0,0,1-6-6V7.75A6.06,6.06,0,0,1,103.88,1.71Z"/><path class="cls-2" d="M101.19.44h34.32a4.76,4.76,0,0,1,4.75,4.75V57.68a4.76,4.76,0,0,1-4.75,4.75H101.19a4.76,4.76,0,0,1-4.75-4.75V5.19A4.76,4.76,0,0,1,101.19.44Z"/><path class="cls-3" d="M135.52.89H101.19a4.32,4.32,0,0,0-4.3,4.3V57.68a4.32,4.32,0,0,0,4.3,4.3h34.33a4.32,4.32,0,0,0,4.3-4.3V5.19a4.32,4.32,0,0,0-4.3-4.3ZM101.19,0h34.32a5.21,5.21,0,0,1,5.19,5.19V57.68a5.21,5.21,0,0,1-5.19,5.19H101.19A5.21,5.21,0,0,1,96,57.68V5.19A5.21,5.21,0,0,1,101.19,0Z"/><path class="cls-4" d="M101.74,7.34A4.64,4.64,0,0,1,103,3.87a3.78,3.78,0,0,1,2.79-1.06A3.59,3.59,0,0,1,108.46,4a3.91,3.91,0,0,1,1.12,2.77,7.16,7.16,0,0,1-.73,3.15A23.32,23.32,0,0,1,107,12.82q-.39.56-1.18,1.75l-.43.65c-.28.43-.49.76-.64,1a.81.81,0,0,0-.1.23h4.74v2.36H101.7V16.61a5.45,5.45,0,0,1,.53-.88l.55-.82.63-.9q.55-.75,1.74-2.41a16,16,0,0,0,1.67-2.82,4.84,4.84,0,0,0,.45-1.93,1.91,1.91,0,0,0-.41-1.23,1.45,1.45,0,0,0-1.16-.54,1.49,1.49,0,0,0-1.44,1.16,2.69,2.69,0,0,0-.14.92v.61h-2.38Z"/><path class="cls-4" d="M126.13,43.12s1.71-3.9,5.71-4c4.28-.09,6.76,5.73,2.66,10.73a31.43,31.43,0,0,1-8.38,7,31.37,31.37,0,0,1-8.38-7c-4.09-5-1.61-10.82,2.67-10.72C124.42,39.22,126.13,43.12,126.13,43.12Z"/><path class="cls-4" d="M105.9,26.12a4.38,4.38,0,0,1,3.63-2.54c2.72-.06,4.3,3.64,1.69,6.82a20,20,0,0,1-5.33,4.44,19.92,19.92,0,0,1-5.33-4.44c-2.6-3.18-1-6.88,1.7-6.82A4.38,4.38,0,0,1,105.9,26.12Z"/><path class="cls-1" d="M151.88,1.71h32a6.06,6.06,0,0,1,6,6V58a6.06,6.06,0,0,1-6,6h-32a6.06,6.06,0,0,1-6-6V7.75A6.06,6.06,0,0,1,151.88,1.71Z"/><path class="cls-2" d="M149.19.44h34.33a4.76,4.76,0,0,1,4.75,4.75V57.68a4.76,4.76,0,0,1-4.75,4.75H149.19a4.76,4.76,0,0,1-4.75-4.75V5.19A4.76,4.76,0,0,1,149.19.44Z"/><path class="cls-3" d="M183.52.89H149.19a4.32,4.32,0,0,0-4.3,4.3V57.68a4.32,4.32,0,0,0,4.3,4.3h34.33a4.32,4.32,0,0,0,4.3-4.3V5.19a4.32,4.32,0,0,0-4.3-4.31ZM149.19,0h34.33a5.21,5.21,0,0,1,5.19,5.19V57.68a5.21,5.21,0,0,1-5.19,5.19H149.19A5.21,5.21,0,0,1,144,57.68V5.19A5.21,5.21,0,0,1,149.19,0Z"/><path class="cls-5" d="M149.74,7.34A4.64,4.64,0,0,1,151,3.87a3.78,3.78,0,0,1,2.79-1.06A3.59,3.59,0,0,1,156.46,4a3.9,3.9,0,0,1,1.12,2.77,7.16,7.16,0,0,1-.73,3.16A23.4,23.4,0,0,1,155,12.82q-.4.56-1.18,1.75l-.44.65c-.28.43-.49.76-.64,1a.81.81,0,0,0-.1.23h4.74v2.35H149.7V16.61a5.53,5.53,0,0,1,.53-.88l.55-.82.63-.91q.55-.75,1.74-2.41a15.93,15.93,0,0,0,1.67-2.82,4.84,4.84,0,0,0,.45-1.93,1.91,1.91,0,0,0-.41-1.23,1.45,1.45,0,0,0-1.16-.54,1.49,1.49,0,0,0-1.44,1.16,2.72,2.72,0,0,0-.14.92v.61h-2.38Z"/><path class="cls-5" d="M158.55,28c-2.26-1.82-3.44-2.72-4.74-5.28-1.32,2.56-2.51,3.45-4.78,5.25-3.55,2.81-1.6,6.51,1.17,6.7a3.62,3.62,0,0,0,3.26-1.89,17.68,17.68,0,0,1-.86,3.74h2.34a17.68,17.68,0,0,1-.84-3.74,3.62,3.62,0,0,0,3.24,1.91C160.11,34.54,162.09,30.86,158.55,28Z"/><path class="cls-5" d="M181.58,43.45c-3.55-2.85-5.41-4.27-7.46-8.3-2.07,4-3.94,5.42-7.51,8.25-5.58,4.42-2.51,10.23,1.84,10.52a5.69,5.69,0,0,0,5.12-3,27.86,27.86,0,0,1-1.36,5.87h3.68A27.58,27.58,0,0,1,174.58,51a5.68,5.68,0,0,0,5.1,3C184,53.68,187.13,47.9,181.58,43.45Z"/><path class="cls-1" d="M7.88,1.72h32a6.06,6.06,0,0,1,6,6V58a6.06,6.06,0,0,1-6,6h-32a6.06,6.06,0,0,1-6-6V7.75A6.05,6.05,0,0,1,7.88,1.72Z"/><path class="cls-2" d="M5.19.45H39.52a4.76,4.76,0,0,1,4.75,4.75V57.68a4.76,4.76,0,0,1-4.75,4.75H5.19A4.76,4.76,0,0,1,.44,57.68V5.19A4.76,4.76,0,0,1,5.19.45Z"/><path class="cls-3" d="M39.52.89H5.19a4.32,4.32,0,0,0-4.3,4.3V57.67A4.32,4.32,0,0,0,5.19,62H39.52a4.32,4.32,0,0,0,4.3-4.3V5.19a4.32,4.32,0,0,0-4.3-4.3ZM5.19,0H39.52a5.21,5.21,0,0,1,5.19,5.19V57.67a5.21,5.21,0,0,1-5.19,5.19H5.19A5.21,5.21,0,0,1,0,57.67V5.19A5.21,5.21,0,0,1,5.19,0Z"/><path class="cls-5" d="M9.76,16.41q1.62,0,1.62-1.51V14q0-2.41-2.51-2.41v-2a2.47,2.47,0,0,0,2-.76,2.82,2.82,0,0,0,.6-1.92V6.51Q11.47,5,10.12,5A1.2,1.2,0,0,0,9,5.55a2.2,2.2,0,0,0-.26,1.13v.41H6.46V6.73A4.19,4.19,0,0,1,7.31,4,3.27,3.27,0,0,1,10,2.82a3.38,3.38,0,0,1,2.65,1.12,3.66,3.66,0,0,1,.9,2.52v.66a3.84,3.84,0,0,1-.87,2.52,3.62,3.62,0,0,1-.87.76,3.92,3.92,0,0,1,1.62,1.78,3.38,3.38,0,0,1,.3,1.48V14.9a3.73,3.73,0,0,1-1.19,2.85,3.84,3.84,0,0,1-2.73,1.07,3.72,3.72,0,0,1-3.73-3.73V14.7l2.25-.17,0,.55a1.51,1.51,0,0,0,.42,1A1.28,1.28,0,0,0,9.76,16.41Z"/><path class="cls-5" d="M14.55,28c-2.26-1.82-3.44-2.72-4.74-5.28C8.49,25.29,7.3,26.18,5,28c-3.55,2.81-1.6,6.51,1.17,6.7A3.62,3.62,0,0,0,9.46,32.8a17.68,17.68,0,0,1-.86,3.74h2.34a17.65,17.65,0,0,1-.84-3.74,3.62,3.62,0,0,0,3.24,1.91C16.11,34.54,18.09,30.86,14.55,28Z"/><path class="cls-5" d="M37.58,43.44c-3.55-2.85-5.41-4.27-7.45-8.3-2.07,4-3.94,5.42-7.5,8.25C17,47.82,20.11,53.62,24.46,53.92a5.69,5.69,0,0,0,5.12-3,27.86,27.86,0,0,1-1.36,5.87H31.9A27.58,27.58,0,0,1,30.58,51a5.68,5.68,0,0,0,5.1,3C40,53.68,43.13,47.9,37.58,43.44Z"/><path class="cls-1" d="M199.88,1.71h32a6.06,6.06,0,0,1,6,6V58a6.06,6.06,0,0,1-6,6h-32a6.06,6.06,0,0,1-6-6V7.75A6.05,6.05,0,0,1,199.88,1.71Z"/><path class="cls-2" d="M197.19.44h34.32a4.76,4.76,0,0,1,4.75,4.75V57.68a4.76,4.76,0,0,1-4.75,4.75H197.19a4.76,4.76,0,0,1-4.75-4.75V5.19A4.76,4.76,0,0,1,197.19.44Z"/><path class="cls-3" d="M231.52.89H197.19a4.32,4.32,0,0,0-4.3,4.3V57.68a4.32,4.32,0,0,0,4.3,4.3h34.33a4.32,4.32,0,0,0,4.3-4.3V5.19a4.32,4.32,0,0,0-4.3-4.3ZM197.19,0h34.32a5.21,5.21,0,0,1,5.19,5.19V57.68a5.21,5.21,0,0,1-5.19,5.19H197.19A5.21,5.21,0,0,1,192,57.68V5.19A5.21,5.21,0,0,1,197.19,0Z"/><path class="cls-1" d="M205.35,27.31a3.26,3.26,0,0,0-1.34.32,3.22,3.22,0,1,0-4.21,0,3.29,3.29,0,1,0,1.75,3.89,24,24,0,0,1-1.12,5h2.95a23.84,23.84,0,0,1-1.12-5,3.3,3.3,0,0,0,2.56,2.32h0l.13,0H205l.23,0h.08a3.3,3.3,0,0,0,3.22-3.29v-.3h0v0h0V30h0v-.07h0v-.07h0V29.8l0-.07v-.2l0,0v0l0-.06h0l0-.06h0l0-.06h0l0-.06h0l0,0v0l0,0,0,0,0,0,0,0v0l0,0v0l0-.05h0l0-.06h0l0-.06h0l0,0h0l0,0h0l-.08-.1h0l0,0,0,0,0,0h0l0,0h0l0,0h0l0,0h0l0,0h0l0,0,0,0,0,0,0,0,0,0,0,0,0,0,0,0h0l0,0h0l-.06,0h0l-.06,0h0l-.05,0h0l0,0h0l0,0,0,0,0,0h0l0,0,0,0h0l-.05,0h0l-.06,0h0l-.06,0h0l-.06,0h0l-.05,0h0l0,0h0l-.06,0h-.18l-.07,0h-.07A3.87,3.87,0,0,0,205.35,27.31Z"/><path class="cls-1" d="M227.54,42.31a5.1,5.1,0,0,0-2.11.51,5.06,5.06,0,1,0-6.61,0,5.18,5.18,0,1,0,2.75,6.12c-.27,1.9-.92,6.1-1.76,7.89h4.63c-.84-1.79-1.49-6-1.76-7.89a5.19,5.19,0,0,0,4,3.64h0l.2,0H227l.37,0h.14a5.18,5.18,0,0,0,5.06-5.18v-.81l0-.1h0l0-.11h0l0-.11h0l0-.1,0-.11v0l0-.07,0-.05,0-.05,0-.07v0l0-.08v0l0-.09h0l0-.1h0l0-.1h0l0-.09v0l0-.07,0,0,0-.06,0,0,0,0,0-.06,0,0,0-.07v0l0-.08h0l-.06-.09h0l-.06-.09h0l-.06-.08v0l0-.07h0l-.12-.16h0l0-.05,0,0-.05-.06,0,0-.06-.07h0l-.07-.08h0l-.08-.08h0l-.07-.07,0,0-.06-.06,0,0-.05,0,0,0,0,0-.05,0,0,0-.06,0,0,0-.08-.06h0l-.09-.06h0l-.09-.06h0l-.08-.05h0l0,0-.07,0h0L230,43l0,0-.05,0h0l-.08,0-.07,0h0l-.08,0h0l-.1,0h0l-.1,0h0l-.09,0h0l-.08,0h0l-.07,0,0,0h0l-.09,0h-.07l-.08,0h0l-.09,0h0l-.11,0h0l-.11,0A5.33,5.33,0,0,0,227.54,42.31Z"/><path class="cls-1" d="M202,13V8l-2,5Zm-4.26,0,4.26-10.14h2.41V13H206v2.43h-1.55v3.43h-2.41V15.38h-4.27Z"/><g id="x0020_2-2" data-name="x0020 2"><g id="_1781979405120-2" data-name=" 1781979405120"><path class="cls-1" d="M55.88,67.59h32a6.06,6.06,0,0,1,6,6v50.21a6.06,6.06,0,0,1-6,6h-32a6.06,6.06,0,0,1-6-6V73.63A6.06,6.06,0,0,1,55.88,67.59Z"/><path class="cls-2" d="M53.19,66.32H87.52a4.76,4.76,0,0,1,4.75,4.75v52.48a4.76,4.76,0,0,1-4.75,4.75H53.19a4.76,4.76,0,0,1-4.75-4.75V71.07A4.76,4.76,0,0,1,53.19,66.32Z"/><path class="cls-3" d="M87.52,66.76H53.19a4.32,4.32,0,0,0-4.3,4.3v52.48a4.32,4.32,0,0,0,4.3,4.3H87.52a4.31,4.31,0,0,0,4.3-4.3V71.07a4.32,4.32,0,0,0-4.3-4.3Zm-34.32-.89H87.52a5.21,5.21,0,0,1,5.19,5.19v52.48a5.21,5.21,0,0,1-5.19,5.19H53.19A5.21,5.21,0,0,1,48,123.55V71.07a5.21,5.21,0,0,1,5.19-5.19Z"/><path class="cls-4" d="M53.74,73.22A4.64,4.64,0,0,1,55,69.74a3.79,3.79,0,0,1,2.79-1.06,3.59,3.59,0,0,1,2.71,1.19,3.91,3.91,0,0,1,1.12,2.77,7.16,7.16,0,0,1-.73,3.15A23.23,23.23,0,0,1,59,78.69q-.39.56-1.18,1.75l-.43.65c-.28.43-.49.76-.64,1a.81.81,0,0,0-.1.23h4.74v2.36H53.7V82.48a5.5,5.5,0,0,1,.53-.88l.55-.82.63-.9q.55-.75,1.74-2.41a16,16,0,0,0,1.67-2.82,4.84,4.84,0,0,0,.45-1.93,1.91,1.91,0,0,0-.41-1.23A1.45,1.45,0,0,0,57.69,71a1.49,1.49,0,0,0-1.44,1.16,2.7,2.7,0,0,0-.14.92v.61H53.74Z"/><path class="cls-4" d="M78.15,99.63s.53.81,1.46,2.09l.08.11,0,0,.05.07.16.22h0l0,.05,0,.06.09.12h0l.09.11.05.07,0,0,.09.12v0l.08.1.07.09,0,0,.1.13,0,0,.07.09.09.11v0l.1.13,0,.06.06.08.11.14h0l.11.14.06.08,0,.06.11.14v0l.1.12.08.1.15.19,0,0,.19.23,0,0,.12.15,0,.06.07.09.12.15h0l.12.15.07.08.4.48,0,.05.13.16,0,0,.1.12.11.13,0,0,.14.16,0,.06.22.25h0l.66.75.05.06.41.45,0,0,.15.16.05.05.1.11.14.15,0,0,.46.49h0l.24.25h0l.06.06.16.16,0,0,.13.13.12.12,0,0,.21.21.11.11.14.14,0,0,.17.16.07.07.09.09.17.16a75.92,75.92,0,0,0-9.63,11.54H78v-.09h0v0h0l0,0,0,0h0l0,0,0,0h0v0l0,0,0,0h0l0,0,0,0,0,0h0l0,0,0,0,0,0h0l0,0,0,0,0,0h0l0,0,0,0v0l0,0,0,0h0l0,0,0,0,0,0h0l-.13-.19,0,0,0,0h0l0-.05,0-.05,0,0v0l0-.05,0-.05,0,0,0,0,0-.05,0-.06v0l0,0,0-.06a74.78,74.78,0,0,0-8.21-9.55A75.85,75.85,0,0,0,78.15,99.63Z"/><path class="cls-4" d="M57.92,87.72s.34.51.93,1.33l0,.07,0,0,0,0,.1.14h0l0,0,0,0,.06.07h0l.06.07,0,0,0,0,.06.08h0l0,.07,0,.06,0,0,.06.08,0,0,0,.06.06.07h0l.06.09,0,0,0,0,.07.09h0l.07.09,0,0,0,0,.07.09h0l.06.08.05.06.1.12,0,0,.12.15h0l.08.09,0,0,0,.06.08.09h0l.08.1,0,.05.26.31,0,0,.08.1,0,0,.07.08.07.08,0,0,.09.1,0,0,.14.16h0L62,93l0,0,.26.29,0,0,.1.1,0,0,.06.07.09.09h0l.29.31h0l.15.16h0l0,0,.1.1v0l.08.09.07.08,0,0,.13.14.07.07.09.09h0l.1.1,0,0,.06.06.11.1a48.25,48.25,0,0,0-6.13,7.35h-.12v0h0v0h0v0h0V102h0l0,0v0h0l0,0,0,0v0h0l0,0,0,0h0l0,0,0,0h0v0l0,0,0,0h0l-.08-.12,0,0,0,0h0l0,0,0,0v0h0l0,0,0,0v0l0,0,0,0h0l0,0,0,0a47.71,47.71,0,0,0-5.23-6.08A48.45,48.45,0,0,0,57.92,87.72Z"/></g></g><path class="cls-1" d="M103.88,67.59h32a6.06,6.06,0,0,1,6,6v50.21a6.06,6.06,0,0,1-6,6h-32a6.06,6.06,0,0,1-6-6V73.63A6.06,6.06,0,0,1,103.88,67.59Z"/><path class="cls-2" d="M101.19,66.32h34.32a4.76,4.76,0,0,1,4.75,4.75v52.48a4.76,4.76,0,0,1-4.75,4.75H101.19a4.76,4.76,0,0,1-4.75-4.75V71.07A4.76,4.76,0,0,1,101.19,66.32Z"/><path class="cls-3" d="M135.52,66.76H101.19a4.32,4.32,0,0,0-4.3,4.3v52.48a4.32,4.32,0,0,0,4.3,4.3h34.33a4.32,4.32,0,0,0,4.3-4.3V71.07a4.32,4.32,0,0,0-4.3-4.3Zm-34.32-.89h34.32a5.21,5.21,0,0,1,5.19,5.19v52.48a5.21,5.21,0,0,1-5.19,5.19H101.19A5.21,5.21,0,0,1,96,123.55V71.07a5.21,5.21,0,0,1,5.19-5.19Z"/><path class="cls-4" d="M101.74,73.22A4.64,4.64,0,0,1,103,69.75a3.78,3.78,0,0,1,2.79-1.06,3.59,3.59,0,0,1,2.71,1.19,3.91,3.91,0,0,1,1.12,2.77,7.16,7.16,0,0,1-.73,3.15A23.32,23.32,0,0,1,107,78.69q-.39.56-1.18,1.75l-.43.65c-.28.43-.49.76-.64,1a.81.81,0,0,0-.1.23h4.74v2.36H101.7V82.48a5.45,5.45,0,0,1,.53-.88l.55-.82.63-.9q.55-.75,1.74-2.41a16,16,0,0,0,1.67-2.82,4.84,4.84,0,0,0,.45-1.93,1.91,1.91,0,0,0-.41-1.23,1.45,1.45,0,0,0-1.16-.54,1.49,1.49,0,0,0-1.44,1.16,2.69,2.69,0,0,0-.14.92v.61h-2.38Z"/><path class="cls-4" d="M126.13,109s1.71-3.9,5.71-4c4.28-.09,6.76,5.73,2.66,10.73a31.43,31.43,0,0,1-8.38,7,31.37,31.37,0,0,1-8.38-7c-4.09-5-1.61-10.82,2.67-10.72C124.42,105.09,126.13,109,126.13,109Z"/><path class="cls-4" d="M105.9,92a4.38,4.38,0,0,1,3.63-2.54c2.72-.06,4.3,3.64,1.69,6.82a20,20,0,0,1-5.33,4.44,19.92,19.92,0,0,1-5.33-4.44c-2.6-3.18-1-6.88,1.7-6.82A4.38,4.38,0,0,1,105.9,92Z"/><path class="cls-1" d="M151.88,67.59h32a6.06,6.06,0,0,1,6,6v50.21a6.06,6.06,0,0,1-6,6h-32a6.06,6.06,0,0,1-6-6V73.63A6.06,6.06,0,0,1,151.88,67.59Z"/><path class="cls-2" d="M149.19,66.32h34.33a4.76,4.76,0,0,1,4.75,4.75v52.48a4.76,4.76,0,0,1-4.75,4.75H149.19a4.76,4.76,0,0,1-4.75-4.75V71.07A4.76,4.76,0,0,1,149.19,66.32Z"/><path class="cls-3" d="M183.52,66.76H149.19a4.32,4.32,0,0,0-4.3,4.3v52.48a4.32,4.32,0,0,0,4.3,4.3h34.33a4.32,4.32,0,0,0,4.3-4.3V71.07a4.32,4.32,0,0,0-4.3-4.31Zm-34.33-.89h34.33a5.21,5.21,0,0,1,5.19,5.19v52.48a5.21,5.21,0,0,1-5.19,5.19H149.19a5.21,5.21,0,0,1-5.19-5.19V71.07a5.21,5.21,0,0,1,5.19-5.19Z"/><path class="cls-5" d="M149.74,73.22A4.64,4.64,0,0,1,151,69.75a3.78,3.78,0,0,1,2.79-1.06,3.59,3.59,0,0,1,2.71,1.19,3.9,3.9,0,0,1,1.12,2.77,7.16,7.16,0,0,1-.73,3.16A23.4,23.4,0,0,1,155,78.69q-.4.56-1.18,1.75l-.44.65c-.28.43-.49.76-.64,1a.81.81,0,0,0-.1.23h4.74v2.35H149.7V82.48a5.53,5.53,0,0,1,.53-.88l.55-.82.63-.91q.55-.75,1.74-2.41a15.93,15.93,0,0,0,1.67-2.82,4.84,4.84,0,0,0,.45-1.93,1.91,1.91,0,0,0-.41-1.23,1.45,1.45,0,0,0-1.16-.54,1.49,1.49,0,0,0-1.44,1.16,2.72,2.72,0,0,0-.14.92v.61h-2.38Z"/><path class="cls-5" d="M158.55,93.89c-2.26-1.82-3.44-2.72-4.74-5.28-1.32,2.56-2.51,3.45-4.78,5.25-3.55,2.81-1.6,6.51,1.17,6.7a3.62,3.62,0,0,0,3.26-1.89,17.68,17.68,0,0,1-.86,3.74h2.34a17.68,17.68,0,0,1-.84-3.74,3.62,3.62,0,0,0,3.24,1.91C160.11,100.41,162.09,96.73,158.55,93.89Z"/><path class="cls-5" d="M181.58,109.32c-3.55-2.85-5.41-4.27-7.46-8.3-2.07,4-3.94,5.42-7.51,8.25-5.58,4.42-2.51,10.23,1.84,10.52a5.69,5.69,0,0,0,5.12-3,27.86,27.86,0,0,1-1.36,5.87h3.68a27.58,27.58,0,0,1-1.32-5.88,5.68,5.68,0,0,0,5.1,3C184,119.56,187.13,113.77,181.58,109.32Z"/><path class="cls-1" d="M7.88,67.59h32a6.06,6.06,0,0,1,6,6v50.21a6.06,6.06,0,0,1-6,6h-32a6.06,6.06,0,0,1-6-6V73.63A6.05,6.05,0,0,1,7.88,67.59Z"/><path class="cls-2" d="M5.19,66.32H39.52a4.76,4.76,0,0,1,4.75,4.75v52.48a4.76,4.76,0,0,1-4.75,4.75H5.19a4.76,4.76,0,0,1-4.75-4.75V71.07A4.76,4.76,0,0,1,5.19,66.32Z"/><path class="cls-3" d="M39.52,66.76H5.19a4.32,4.32,0,0,0-4.3,4.3v52.48a4.32,4.32,0,0,0,4.3,4.3H39.52a4.32,4.32,0,0,0,4.3-4.3V71.07a4.32,4.32,0,0,0-4.3-4.3ZM5.19,65.87H39.52a5.21,5.21,0,0,1,5.19,5.19v52.48a5.21,5.21,0,0,1-5.19,5.19H5.19A5.21,5.21,0,0,1,0,123.55V71.07a5.21,5.21,0,0,1,5.19-5.19Z"/><path class="cls-5" d="M9.76,82.28q1.62,0,1.62-1.51v-.93q0-2.41-2.51-2.41v-2a2.47,2.47,0,0,0,2-.76,2.82,2.82,0,0,0,.6-1.92v-.36q0-1.53-1.35-1.53a1.2,1.2,0,0,0-1.1.57,2.2,2.2,0,0,0-.26,1.13V73H6.46V72.6a4.19,4.19,0,0,1,.85-2.72A3.27,3.27,0,0,1,10,68.69a3.38,3.38,0,0,1,2.65,1.12,3.66,3.66,0,0,1,.9,2.52V73a3.84,3.84,0,0,1-.87,2.52,3.62,3.62,0,0,1-.87.76,3.92,3.92,0,0,1,1.62,1.78,3.38,3.38,0,0,1,.3,1.48v1.23a3.73,3.73,0,0,1-1.19,2.85,3.84,3.84,0,0,1-2.73,1.07A3.72,3.72,0,0,1,6.09,81v-.39l2.25-.17,0,.55a1.51,1.51,0,0,0,.42,1A1.28,1.28,0,0,0,9.76,82.28Z"/><path class="cls-5" d="M14.55,93.89c-2.26-1.82-3.44-2.72-4.74-5.28C8.49,91.16,7.3,92.06,5,93.86c-3.55,2.81-1.6,6.51,1.17,6.7a3.62,3.62,0,0,0,3.26-1.89,17.68,17.68,0,0,1-.86,3.74h2.34a17.65,17.65,0,0,1-.84-3.74,3.62,3.62,0,0,0,3.24,1.91C16.11,100.41,18.09,96.73,14.55,93.89Z"/><path class="cls-5" d="M37.58,109.31C34,106.46,32.17,105,30.13,101c-2.07,4-3.94,5.42-7.5,8.25-5.58,4.42-2.51,10.23,1.84,10.52a5.69,5.69,0,0,0,5.12-3,27.86,27.86,0,0,1-1.36,5.87H31.9a27.58,27.58,0,0,1-1.32-5.88,5.68,5.68,0,0,0,5.1,3C40,119.55,43.13,113.77,37.58,109.31Z"/><path class="cls-1" d="M199.88,67.59h32a6.06,6.06,0,0,1,6,6v50.21a6.06,6.06,0,0,1-6,6h-32a6.06,6.06,0,0,1-6-6V73.63A6.05,6.05,0,0,1,199.88,67.59Z"/><path class="cls-2" d="M197.19,66.32h34.32a4.76,4.76,0,0,1,4.75,4.75v52.48a4.76,4.76,0,0,1-4.75,4.75H197.19a4.76,4.76,0,0,1-4.75-4.75V71.07A4.76,4.76,0,0,1,197.19,66.32Z"/><path class="cls-3" d="M231.52,66.76H197.19a4.32,4.32,0,0,0-4.3,4.3v52.48a4.32,4.32,0,0,0,4.3,4.3h34.33a4.32,4.32,0,0,0,4.3-4.3V71.07a4.32,4.32,0,0,0-4.3-4.3Zm-34.32-.89h34.32a5.21,5.21,0,0,1,5.19,5.19v52.48a5.21,5.21,0,0,1-5.19,5.19H197.19a5.21,5.21,0,0,1-5.19-5.19V71.07a5.21,5.21,0,0,1,5.19-5.19Z"/><path class="cls-1" d="M205.35,93.18a3.26,3.26,0,0,0-1.34.32,3.22,3.22,0,1,0-4.21,0,3.29,3.29,0,1,0,1.75,3.89,24,24,0,0,1-1.12,5h2.95a23.84,23.84,0,0,1-1.12-5,3.3,3.3,0,0,0,2.56,2.32h0l.13,0H205l.23,0h.08a3.3,3.3,0,0,0,3.22-3.29v-.3h0v0h0v-.21h0v-.07h0v-.07h0v-.06l0-.07v-.2l0,0v0l0-.06h0l0-.06h0l0-.06h0l0-.06h0l0,0v0l0,0,0,0,0,0,0,0v0l0,0v0l0-.05h0l0-.06h0l0-.06h0l0,0h0l0,0h0l-.08-.1h0l0,0,0,0,0,0h0l0,0h0l0,0h0l0,0h0l0,0h0l0,0,0,0,0,0,0,0,0,0,0,0,0,0,0,0h0l0,0h0l-.06,0h0l-.06,0h0l-.05,0h0l0,0h0l0,0,0,0,0,0h0l0,0,0,0h0l-.05,0h0l-.06,0h0l-.06,0h0l-.06,0h0l-.05,0h0l0,0h0l-.06,0h-.18l-.07,0h-.07A3.87,3.87,0,0,0,205.35,93.18Z"/><path class="cls-1" d="M227.54,108.18a5.1,5.1,0,0,0-2.11.51,5.06,5.06,0,1,0-6.61,0,5.18,5.18,0,1,0,2.75,6.12c-.27,1.9-.92,6.1-1.76,7.89h4.63c-.84-1.79-1.49-6-1.76-7.89a5.19,5.19,0,0,0,4,3.64h0l.2,0H227l.37,0h.14a5.18,5.18,0,0,0,5.06-5.18v-.81l0-.1h0l0-.11h0l0-.11h0l0-.1,0-.11v0l0-.07,0-.05,0-.05,0-.07v0l0-.08v0l0-.09h0l0-.1h0l0-.1h0l0-.09v0l0-.07,0,0,0-.06,0,0,0,0,0-.06,0,0,0-.07v0l0-.08h0l-.06-.09h0l-.06-.09h0l-.06-.08v0l0-.07h0l-.12-.16h0l0-.05,0,0-.05-.06,0,0-.06-.07h0l-.07-.08h0l-.08-.08h0l-.07-.07,0,0-.06-.06,0,0-.05,0,0,0,0,0-.05,0,0,0-.06,0,0,0-.08-.06h0l-.09-.06h0l-.09-.06h0l-.08-.05h0l0,0-.07,0h0l-.06,0,0,0-.05,0h0l-.08,0-.07,0h0l-.08,0h0l-.1,0h0l-.1,0h0l-.09,0h0l-.08,0h0l-.07,0,0,0h0l-.09,0h-.07l-.08,0h0l-.09,0h0l-.11,0h0l-.11,0A5.33,5.33,0,0,0,227.54,108.18Z"/><path class="cls-1" d="M202,78.83v-5l-2,5Zm-4.26,0,4.26-10.14h2.41V78.83H206v2.43h-1.55v3.43h-2.41V81.25h-4.27Z"/><g id="x0020_2-3" data-name="x0020 2"><g id="_1781979405120-3" data-name=" 1781979405120"><path class="cls-1" d="M55.88,133.59h32a6.06,6.06,0,0,1,6,6v50.21a6.06,6.06,0,0,1-6,6h-32a6.06,6.06,0,0,1-6-6V139.63A6.06,6.06,0,0,1,55.88,133.59Z"/><path class="cls-2" d="M53.19,132.32H87.52a4.76,4.76,0,0,1,4.75,4.75v52.48a4.76,4.76,0,0,1-4.75,4.75H53.19a4.76,4.76,0,0,1-4.75-4.75V137.07A4.76,4.76,0,0,1,53.19,132.32Z"/><path class="cls-3" d="M87.52,132.76H53.19a4.32,4.32,0,0,0-4.3,4.3v52.48a4.32,4.32,0,0,0,4.3,4.3H87.52a4.31,4.31,0,0,0,4.3-4.3V137.07a4.32,4.32,0,0,0-4.3-4.3Zm-34.32-.89H87.52a5.21,5.21,0,0,1,5.19,5.19v52.48a5.21,5.21,0,0,1-5.19,5.19H53.19A5.21,5.21,0,0,1,48,189.55V137.07a5.21,5.21,0,0,1,5.19-5.19Z"/><path class="cls-4" d="M53.74,139.22A4.64,4.64,0,0,1,55,135.74a3.79,3.79,0,0,1,2.79-1.06,3.59,3.59,0,0,1,2.71,1.19,3.91,3.91,0,0,1,1.12,2.77,7.16,7.16,0,0,1-.73,3.15A23.23,23.23,0,0,1,59,144.69q-.39.56-1.18,1.75l-.43.65c-.28.43-.49.76-.64,1a.81.81,0,0,0-.1.23h4.74v2.36H53.7v-2.21a5.5,5.5,0,0,1,.53-.88l.55-.82.63-.9q.55-.75,1.74-2.41a16,16,0,0,0,1.67-2.82,4.84,4.84,0,0,0,.45-1.93,1.91,1.91,0,0,0-.41-1.23,1.45,1.45,0,0,0-1.16-.54,1.49,1.49,0,0,0-1.44,1.16,2.7,2.7,0,0,0-.14.92v.61H53.74Z"/><path class="cls-4" d="M78.15,165.63s.53.81,1.46,2.09l.08.11,0,0,.05.07.16.22h0l0,.05,0,.06.09.12h0l.09.11.05.07,0,0,.09.12v0l.08.1.07.09,0,0,.1.13,0,0,.07.09.09.11v0l.1.13,0,.06.06.08.11.14h0l.11.14.06.08,0,.06.11.14v0l.1.12.08.1.15.19,0,0,.19.23,0,0,.12.15,0,.06.07.09.12.15h0l.12.15.07.08.4.48,0,.05.13.16,0,0,.1.12.11.13,0,0,.14.16,0,.06.22.25h0l.66.75.05.06.41.45,0,0,.15.16.05.05.1.11.14.15,0,0,.46.49h0l.24.25h0l.06.06.16.16,0,0,.13.13.12.12,0,0,.21.21.11.11.14.14,0,0,.17.16.07.07.09.09.17.16a75.92,75.92,0,0,0-9.63,11.54H78v-.09h0v0h0l0,0,0,0h0l0,0,0,0h0v0l0,0,0,0h0l0,0,0,0,0,0h0l0,0,0,0,0,0h0l0,0,0,0,0,0h0l0,0,0,0v0l0,0,0,0h0l0,0,0,0,0,0h0l-.13-.19,0,0,0,0h0l0-.05,0-.05,0,0v0l0-.05,0-.05,0,0,0,0,0-.05,0-.06v0l0,0,0-.06a74.78,74.78,0,0,0-8.21-9.55A75.85,75.85,0,0,0,78.15,165.63Z"/><path class="cls-4" d="M57.92,153.72s.34.51.93,1.33l0,.07,0,0,0,0,.1.14h0l0,0,0,0,.06.07h0l.06.07,0,0,0,0,.06.08h0l0,.07,0,.06,0,0,.06.08,0,0,0,.06.06.07h0l.06.09,0,0,0,0,.07.09h0l.07.09,0,0,0,0,.07.09h0l.06.08.05.06.1.12,0,0,.12.15h0l.08.09,0,0,0,.06.08.09h0l.08.1,0,.05.26.31,0,0,.08.1,0,0,.07.08.07.08,0,0,.09.1,0,0,.14.16h0L62,159l0,0,.26.29,0,0,.1.1,0,0,.06.07.09.09h0l.29.31h0l.15.16h0l0,0,.1.1v0l.08.09.07.08,0,0,.13.14.07.07.09.09h0l.1.1,0,0,.06.06.11.1a48.25,48.25,0,0,0-6.13,7.35h-.12v0h0v0h0v0h0V168h0l0,0v0h0l0,0,0,0v0h0l0,0,0,0h0l0,0,0,0h0v0l0,0,0,0h0l-.08-.12,0,0,0,0h0l0,0,0,0v0h0l0,0,0,0v0l0,0,0,0h0l0,0,0,0a47.71,47.71,0,0,0-5.23-6.08A48.45,48.45,0,0,0,57.92,153.72Z"/></g></g><path class="cls-1" d="M103.88,133.59h32a6.06,6.06,0,0,1,6,6v50.21a6.06,6.06,0,0,1-6,6h-32a6.06,6.06,0,0,1-6-6V139.63A6.06,6.06,0,0,1,103.88,133.59Z"/><path class="cls-2" d="M101.19,132.32h34.32a4.76,4.76,0,0,1,4.75,4.75v52.48a4.76,4.76,0,0,1-4.75,4.75H101.19a4.76,4.76,0,0,1-4.75-4.75V137.07A4.76,4.76,0,0,1,101.19,132.32Z"/><path class="cls-3" d="M135.52,132.76H101.19a4.32,4.32,0,0,0-4.3,4.3v52.48a4.32,4.32,0,0,0,4.3,4.3h34.33a4.32,4.32,0,0,0,4.3-4.3V137.07a4.32,4.32,0,0,0-4.3-4.3Zm-34.32-.89h34.32a5.21,5.21,0,0,1,5.19,5.19v52.48a5.21,5.21,0,0,1-5.19,5.19H101.19A5.21,5.21,0,0,1,96,189.55V137.07a5.21,5.21,0,0,1,5.19-5.19Z"/><path class="cls-4" d="M101.74,139.22a4.64,4.64,0,0,1,1.23-3.47,3.78,3.78,0,0,1,2.79-1.06,3.59,3.59,0,0,1,2.71,1.19,3.91,3.91,0,0,1,1.12,2.77,7.16,7.16,0,0,1-.73,3.15,23.32,23.32,0,0,1-1.86,2.89q-.39.56-1.18,1.75l-.43.65c-.28.43-.49.76-.64,1a.81.81,0,0,0-.1.23h4.74v2.36H101.7v-2.21a5.45,5.45,0,0,1,.53-.88l.55-.82.63-.9q.55-.75,1.74-2.41a16,16,0,0,0,1.67-2.82,4.84,4.84,0,0,0,.45-1.93,1.91,1.91,0,0,0-.41-1.23,1.45,1.45,0,0,0-1.16-.54,1.49,1.49,0,0,0-1.44,1.16,2.69,2.69,0,0,0-.14.92v.61h-2.38Z"/><path class="cls-4" d="M126.13,175s1.71-3.9,5.71-4c4.28-.09,6.76,5.73,2.66,10.73a31.43,31.43,0,0,1-8.38,7,31.37,31.37,0,0,1-8.38-7c-4.09-5-1.61-10.82,2.67-10.72C124.42,171.09,126.13,175,126.13,175Z"/><path class="cls-4" d="M105.9,158a4.38,4.38,0,0,1,3.63-2.54c2.72-.06,4.3,3.64,1.69,6.82a20,20,0,0,1-5.33,4.44,19.92,19.92,0,0,1-5.33-4.44c-2.6-3.18-1-6.88,1.7-6.82A4.38,4.38,0,0,1,105.9,158Z"/><path class="cls-1" d="M151.88,133.59h32a6.06,6.06,0,0,1,6,6v50.21a6.06,6.06,0,0,1-6,6h-32a6.06,6.06,0,0,1-6-6V139.63A6.06,6.06,0,0,1,151.88,133.59Z"/><path class="cls-2" d="M149.19,132.32h34.33a4.76,4.76,0,0,1,4.75,4.75v52.48a4.76,4.76,0,0,1-4.75,4.75H149.19a4.76,4.76,0,0,1-4.75-4.75V137.07A4.76,4.76,0,0,1,149.19,132.32Z"/><path class="cls-3" d="M183.52,132.76H149.19a4.32,4.32,0,0,0-4.3,4.3v52.48a4.32,4.32,0,0,0,4.3,4.3h34.33a4.32,4.32,0,0,0,4.3-4.3V137.07a4.32,4.32,0,0,0-4.3-4.31Zm-34.33-.89h34.33a5.21,5.21,0,0,1,5.19,5.19v52.48a5.21,5.21,0,0,1-5.19,5.19H149.19a5.21,5.21,0,0,1-5.19-5.19V137.07a5.21,5.21,0,0,1,5.19-5.19Z"/><path class="cls-5" d="M149.74,139.22a4.64,4.64,0,0,1,1.23-3.47,3.78,3.78,0,0,1,2.79-1.06,3.59,3.59,0,0,1,2.71,1.19,3.9,3.9,0,0,1,1.12,2.77,7.16,7.16,0,0,1-.73,3.16,23.4,23.4,0,0,1-1.86,2.89q-.4.56-1.18,1.75l-.44.65c-.28.43-.49.76-.64,1a.81.81,0,0,0-.1.23h4.74v2.35H149.7v-2.21a5.53,5.53,0,0,1,.53-.88l.55-.82.63-.91q.55-.75,1.74-2.41a15.93,15.93,0,0,0,1.67-2.82,4.84,4.84,0,0,0,.45-1.93,1.91,1.91,0,0,0-.41-1.23,1.45,1.45,0,0,0-1.16-.54,1.49,1.49,0,0,0-1.44,1.16,2.72,2.72,0,0,0-.14.92v.61h-2.38Z"/><path class="cls-5" d="M158.55,159.89c-2.26-1.82-3.44-2.72-4.74-5.28-1.32,2.56-2.51,3.45-4.78,5.25-3.55,2.81-1.6,6.51,1.17,6.7a3.62,3.62,0,0,0,3.26-1.89,17.68,17.68,0,0,1-.86,3.74h2.34a17.68,17.68,0,0,1-.84-3.74,3.62,3.62,0,0,0,3.24,1.91C160.11,166.41,162.09,162.73,158.55,159.89Z"/><path class="cls-5" d="M181.58,175.32c-3.55-2.85-5.41-4.27-7.46-8.3-2.07,4-3.94,5.42-7.51,8.25-5.58,4.42-2.51,10.23,1.84,10.52a5.69,5.69,0,0,0,5.12-3,27.86,27.86,0,0,1-1.36,5.87h3.68a27.58,27.58,0,0,1-1.32-5.88,5.68,5.68,0,0,0,5.1,3C184,185.56,187.13,179.77,181.58,175.32Z"/><path class="cls-1" d="M7.88,133.59h32a6.06,6.06,0,0,1,6,6v50.21a6.06,6.06,0,0,1-6,6h-32a6.06,6.06,0,0,1-6-6V139.63A6.05,6.05,0,0,1,7.88,133.59Z"/><path class="cls-2" d="M5.19,132.32H39.52a4.76,4.76,0,0,1,4.75,4.75v52.48a4.76,4.76,0,0,1-4.75,4.75H5.19a4.76,4.76,0,0,1-4.75-4.75V137.07A4.76,4.76,0,0,1,5.19,132.32Z"/><path class="cls-3" d="M39.52,132.76H5.19a4.32,4.32,0,0,0-4.3,4.3v52.48a4.32,4.32,0,0,0,4.3,4.3H39.52a4.32,4.32,0,0,0,4.3-4.3V137.07a4.32,4.32,0,0,0-4.3-4.3Zm-34.33-.89H39.52a5.21,5.21,0,0,1,5.19,5.19v52.48a5.21,5.21,0,0,1-5.19,5.19H5.19A5.21,5.21,0,0,1,0,189.55V137.07a5.21,5.21,0,0,1,5.19-5.19Z"/><path class="cls-5" d="M9.76,148.28q1.62,0,1.62-1.51v-.93q0-2.41-2.51-2.41v-2a2.47,2.47,0,0,0,2-.76,2.82,2.82,0,0,0,.6-1.92v-.36q0-1.53-1.35-1.53a1.2,1.2,0,0,0-1.1.57,2.2,2.2,0,0,0-.26,1.13V139H6.46v-.36a4.19,4.19,0,0,1,.85-2.72,3.27,3.27,0,0,1,2.71-1.2,3.38,3.38,0,0,1,2.65,1.12,3.66,3.66,0,0,1,.9,2.52V139a3.84,3.84,0,0,1-.87,2.52,3.62,3.62,0,0,1-.87.76,3.92,3.92,0,0,1,1.62,1.78,3.38,3.38,0,0,1,.3,1.48v1.23a3.73,3.73,0,0,1-1.19,2.85,3.84,3.84,0,0,1-2.73,1.07A3.72,3.72,0,0,1,6.09,147v-.39l2.25-.17,0,.55a1.51,1.51,0,0,0,.42,1A1.28,1.28,0,0,0,9.76,148.28Z"/><path class="cls-5" d="M14.55,159.89c-2.26-1.82-3.44-2.72-4.74-5.28-1.32,2.56-2.51,3.45-4.78,5.25-3.55,2.81-1.6,6.51,1.17,6.7a3.62,3.62,0,0,0,3.26-1.89,17.68,17.68,0,0,1-.86,3.74h2.34a17.65,17.65,0,0,1-.84-3.74,3.62,3.62,0,0,0,3.24,1.91C16.11,166.41,18.09,162.73,14.55,159.89Z"/><path class="cls-5" d="M37.58,175.31C34,172.46,32.17,171,30.13,167c-2.07,4-3.94,5.42-7.5,8.25-5.58,4.42-2.51,10.23,1.84,10.52a5.69,5.69,0,0,0,5.12-3,27.86,27.86,0,0,1-1.36,5.87H31.9a27.58,27.58,0,0,1-1.32-5.88,5.68,5.68,0,0,0,5.1,3C40,185.55,43.13,179.77,37.58,175.31Z"/><path class="cls-1" d="M199.88,133.59h32a6.06,6.06,0,0,1,6,6v50.21a6.06,6.06,0,0,1-6,6h-32a6.06,6.06,0,0,1-6-6V139.63A6.05,6.05,0,0,1,199.88,133.59Z"/><path class="cls-2" d="M197.19,132.32h34.32a4.76,4.76,0,0,1,4.75,4.75v52.48a4.76,4.76,0,0,1-4.75,4.75H197.19a4.76,4.76,0,0,1-4.75-4.75V137.07A4.76,4.76,0,0,1,197.19,132.32Z"/><path class="cls-3" d="M231.52,132.76H197.19a4.32,4.32,0,0,0-4.3,4.3v52.48a4.32,4.32,0,0,0,4.3,4.3h34.33a4.32,4.32,0,0,0,4.3-4.3V137.07a4.32,4.32,0,0,0-4.3-4.3Zm-34.32-.89h34.32a5.21,5.21,0,0,1,5.19,5.19v52.48a5.21,5.21,0,0,1-5.19,5.19H197.19a5.21,5.21,0,0,1-5.19-5.19V137.07a5.21,5.21,0,0,1,5.19-5.19Z"/><path class="cls-1" d="M205.35,159.18a3.26,3.26,0,0,0-1.34.32,3.22,3.22,0,1,0-4.21,0,3.29,3.29,0,1,0,1.75,3.89,24,24,0,0,1-1.12,5h2.95a23.84,23.84,0,0,1-1.12-5,3.3,3.3,0,0,0,2.56,2.32h0l.13,0H205l.23,0h.08a3.3,3.3,0,0,0,3.22-3.29v-.3h0v0h0v-.21h0v-.07h0v-.07h0v-.06l0-.07v-.2l0,0v0l0-.06h0l0-.06h0l0-.06h0l0-.06h0l0,0v0l0,0,0,0,0,0,0,0v0l0,0v0l0-.05h0l0-.06h0l0-.06h0l0,0h0l0,0h0l-.08-.1h0l0,0,0,0,0,0h0l0,0h0l0,0h0l0,0h0l0,0h0l0,0,0,0,0,0,0,0,0,0,0,0,0,0,0,0h0l0,0h0l-.06,0h0l-.06,0h0l-.05,0h0l0,0h0l0,0,0,0,0,0h0l0,0,0,0h0l-.05,0h0l-.06,0h0l-.06,0h0l-.06,0h0l-.05,0h0l0,0h0l-.06,0h-.18l-.07,0h-.07A3.87,3.87,0,0,0,205.35,159.18Z"/><path class="cls-1" d="M227.54,174.18a5.1,5.1,0,0,0-2.11.51,5.06,5.06,0,1,0-6.61,0,5.18,5.18,0,1,0,2.75,6.12c-.27,1.9-.92,6.1-1.76,7.89h4.63c-.84-1.79-1.49-6-1.76-7.89a5.19,5.19,0,0,0,4,3.64h0l.2,0H227l.37,0h.14a5.18,5.18,0,0,0,5.06-5.18v-.81l0-.1h0l0-.11h0l0-.11h0l0-.1,0-.11v0l0-.07,0-.05,0-.05,0-.07v0l0-.08v0l0-.09h0l0-.1h0l0-.1h0l0-.09v0l0-.07,0,0,0-.06,0,0,0,0,0-.06,0,0,0-.07v0l0-.08h0l-.06-.09h0l-.06-.09h0l-.06-.08v0l0-.07h0l-.12-.16h0l0-.05,0,0-.05-.06,0,0-.06-.07h0l-.07-.08h0l-.08-.08h0l-.07-.07,0,0-.06-.06,0,0-.05,0,0,0,0,0-.05,0,0,0-.06,0,0,0-.08-.06h0l-.09-.06h0l-.09-.06h0l-.08-.05h0l0,0-.07,0h0l-.06,0,0,0-.05,0h0l-.08,0-.07,0h0l-.08,0h0l-.1,0h0l-.1,0h0l-.09,0h0l-.08,0h0l-.07,0,0,0h0l-.09,0h-.07l-.08,0h0l-.09,0h0l-.11,0h0l-.11,0A5.33,5.33,0,0,0,227.54,174.18Z"/><path class="cls-1" d="M202,144.83v-5l-2,5Zm-4.26,0,4.26-10.14h2.41v10.14H206v2.43h-1.55v3.43h-2.41v-3.43h-4.27Z"/><g id="x0020_2-4" data-name="x0020 2"><g id="_1781979405120-4" data-name=" 1781979405120"><path class="cls-1" d="M55.88,199.46h32a6.06,6.06,0,0,1,6,6V255.7a6.06,6.06,0,0,1-6,6h-32a6.06,6.06,0,0,1-6-6V205.5A6.06,6.06,0,0,1,55.88,199.46Z"/><path class="cls-2" d="M53.19,198.19H87.52a4.76,4.76,0,0,1,4.75,4.75v52.48a4.76,4.76,0,0,1-4.75,4.75H53.19a4.76,4.76,0,0,1-4.75-4.75V202.94A4.76,4.76,0,0,1,53.19,198.19Z"/><path class="cls-3" d="M87.52,198.63H53.19a4.32,4.32,0,0,0-4.3,4.3v52.48a4.32,4.32,0,0,0,4.3,4.3H87.52a4.31,4.31,0,0,0,4.3-4.3V202.94a4.32,4.32,0,0,0-4.3-4.3Zm-34.32-.89H87.52a5.21,5.21,0,0,1,5.19,5.19v52.48a5.21,5.21,0,0,1-5.19,5.19H53.19A5.21,5.21,0,0,1,48,255.42V202.94a5.21,5.21,0,0,1,5.19-5.19Z"/><path class="cls-4" d="M53.74,205.09A4.64,4.64,0,0,1,55,201.62a3.79,3.79,0,0,1,2.79-1.06,3.59,3.59,0,0,1,2.71,1.19,3.91,3.91,0,0,1,1.12,2.77,7.16,7.16,0,0,1-.73,3.15A23.23,23.23,0,0,1,59,210.56q-.39.56-1.18,1.75l-.43.65c-.28.43-.49.76-.64,1a.81.81,0,0,0-.1.23h4.74v2.36H53.7v-2.21a5.5,5.5,0,0,1,.53-.88l.55-.82.63-.9q.55-.75,1.74-2.41a16,16,0,0,0,1.67-2.82,4.84,4.84,0,0,0,.45-1.93,1.91,1.91,0,0,0-.41-1.23,1.45,1.45,0,0,0-1.16-.54A1.49,1.49,0,0,0,56.25,204a2.7,2.7,0,0,0-.14.92v.61H53.74Z"/><path class="cls-4" d="M78.15,231.5s.53.81,1.46,2.09l.08.11,0,0,.05.07.16.22h0l0,.05,0,.06.09.12h0l.09.11.05.07,0,0,.09.12v0l.08.1.07.09,0,0,.1.13,0,0,.07.09.09.11v0l.1.13,0,.06.06.08.11.14h0l.11.14.06.08,0,.06.11.14v0l.1.12.08.1.15.19,0,0,.19.23,0,0,.12.15,0,.06.07.09.12.15h0l.12.15.07.08.4.48,0,.05.13.16,0,0,.1.12.11.13,0,0,.14.16,0,.06.22.25h0l.66.75.05.06.41.45,0,0,.15.16.05.05.1.11.14.15,0,0,.46.49h0l.24.25h0l.06.06.16.16,0,0,.13.13.12.12,0,0,.21.21.11.11.14.14,0,0,.17.16.07.07.09.09.17.16a75.92,75.92,0,0,0-9.63,11.54H78v-.09h0v0h0l0,0,0,0h0l0,0,0,0h0v0l0,0,0,0h0l0,0,0,0,0,0h0l0,0,0,0,0,0h0l0,0,0,0,0,0h0l0,0,0,0v0l0,0,0,0h0l0,0,0,0,0,0h0l-.13-.19,0,0,0,0h0l0-.05,0-.05,0,0v0l0-.05,0-.05,0,0,0,0,0-.05,0-.06v0l0,0,0-.06A74.78,74.78,0,0,0,68.52,243,75.85,75.85,0,0,0,78.15,231.5Z"/><path class="cls-4" d="M57.92,219.6s.34.51.93,1.33l0,.07,0,0,0,0,.1.14h0l0,0,0,0,.06.07h0l.06.07,0,0,0,0,.06.08h0l0,.07,0,.06,0,0,.06.08,0,0,0,.06.06.07h0l.06.09,0,0,0,0,.07.09h0l.07.09,0,0,0,0,.07.09h0l.06.08.05.06.1.12,0,0,.12.15h0l.08.09,0,0,0,.06.08.09h0l.08.1,0,.05.26.31,0,0,.08.1,0,0,.07.08.07.08,0,0,.09.1,0,0,.14.16h0l.42.47,0,0,.26.29,0,0,.1.1,0,0,.06.07.09.09h0l.29.31h0l.15.16h0l0,0,.1.1v0l.08.09.07.08,0,0,.13.14.07.07.09.09h0l.1.1,0,0,.06.06.11.1a48.25,48.25,0,0,0-6.13,7.35h-.12v0h0v0h0v0h0v-.06h0l0,0v0h0l0,0,0,0v0h0l0,0,0,0h0l0,0,0,0h0v0l0,0,0,0h0l-.08-.12,0,0,0,0h0l0,0,0,0v0h0l0,0,0,0v0l0,0,0,0h0l0,0,0,0a47.71,47.71,0,0,0-5.23-6.08A48.45,48.45,0,0,0,57.92,219.6Z"/></g></g><path class="cls-1" d="M103.88,199.46h32a6.06,6.06,0,0,1,6,6v50.21a6.06,6.06,0,0,1-6,6h-32a6.06,6.06,0,0,1-6-6V205.5A6.06,6.06,0,0,1,103.88,199.46Z"/><path class="cls-2" d="M101.19,198.19h34.32a4.76,4.76,0,0,1,4.75,4.75v52.48a4.76,4.76,0,0,1-4.75,4.75H101.19a4.76,4.76,0,0,1-4.75-4.75V202.94A4.76,4.76,0,0,1,101.19,198.19Z"/><path class="cls-3" d="M135.52,198.63H101.19a4.32,4.32,0,0,0-4.3,4.3v52.48a4.32,4.32,0,0,0,4.3,4.3h34.33a4.32,4.32,0,0,0,4.3-4.3V202.94a4.32,4.32,0,0,0-4.3-4.3Zm-34.32-.89h34.32a5.21,5.21,0,0,1,5.19,5.19v52.48a5.21,5.21,0,0,1-5.19,5.19H101.19A5.21,5.21,0,0,1,96,255.42V202.94a5.21,5.21,0,0,1,5.19-5.19Z"/><path class="cls-4" d="M101.74,205.09a4.64,4.64,0,0,1,1.23-3.47,3.78,3.78,0,0,1,2.79-1.06,3.59,3.59,0,0,1,2.71,1.19,3.91,3.91,0,0,1,1.12,2.77,7.16,7.16,0,0,1-.73,3.15,23.32,23.32,0,0,1-1.86,2.89q-.39.56-1.18,1.75l-.43.65c-.28.43-.49.76-.64,1a.81.81,0,0,0-.1.23h4.74v2.36H101.7v-2.21a5.45,5.45,0,0,1,.53-.88l.55-.82.63-.9q.55-.75,1.74-2.41a16,16,0,0,0,1.67-2.82,4.84,4.84,0,0,0,.45-1.93,1.91,1.91,0,0,0-.41-1.23,1.45,1.45,0,0,0-1.16-.54,1.49,1.49,0,0,0-1.44,1.16,2.69,2.69,0,0,0-.14.92v.61h-2.38Z"/><path class="cls-4" d="M126.13,240.86s1.71-3.9,5.71-4c4.28-.09,6.76,5.73,2.66,10.73a31.43,31.43,0,0,1-8.38,7,31.37,31.37,0,0,1-8.38-7c-4.09-5-1.61-10.82,2.67-10.72C124.42,237,126.13,240.86,126.13,240.86Z"/><path class="cls-4" d="M105.9,223.86a4.38,4.38,0,0,1,3.63-2.54c2.72-.06,4.3,3.64,1.69,6.82a20,20,0,0,1-5.33,4.44,19.92,19.92,0,0,1-5.33-4.44c-2.6-3.18-1-6.88,1.7-6.82A4.38,4.38,0,0,1,105.9,223.86Z"/><path class="cls-1" d="M151.88,199.46h32a6.06,6.06,0,0,1,6,6V255.7a6.06,6.06,0,0,1-6,6h-32a6.06,6.06,0,0,1-6-6V205.5A6.06,6.06,0,0,1,151.88,199.46Z"/><path class="cls-2" d="M149.19,198.19h34.33a4.76,4.76,0,0,1,4.75,4.75v52.48a4.76,4.76,0,0,1-4.75,4.75H149.19a4.76,4.76,0,0,1-4.75-4.75V202.94A4.76,4.76,0,0,1,149.19,198.19Z"/><path class="cls-3" d="M183.52,198.63H149.19a4.32,4.32,0,0,0-4.3,4.3v52.48a4.32,4.32,0,0,0,4.3,4.3h34.33a4.32,4.32,0,0,0,4.3-4.3V202.94a4.32,4.32,0,0,0-4.3-4.31Zm-34.33-.89h34.33a5.21,5.21,0,0,1,5.19,5.19v52.48a5.21,5.21,0,0,1-5.19,5.19H149.19a5.21,5.21,0,0,1-5.19-5.19V202.94a5.21,5.21,0,0,1,5.19-5.19Z"/><path class="cls-5" d="M149.74,205.09a4.64,4.64,0,0,1,1.23-3.47,3.78,3.78,0,0,1,2.79-1.06,3.59,3.59,0,0,1,2.71,1.19,3.9,3.9,0,0,1,1.12,2.77,7.16,7.16,0,0,1-.73,3.16,23.4,23.4,0,0,1-1.86,2.89q-.4.56-1.18,1.75l-.44.65c-.28.43-.49.76-.64,1a.81.81,0,0,0-.1.23h4.74v2.35H149.7v-2.21a5.53,5.53,0,0,1,.53-.88l.55-.82.63-.91q.55-.75,1.74-2.41a15.93,15.93,0,0,0,1.67-2.82,4.84,4.84,0,0,0,.45-1.93,1.91,1.91,0,0,0-.41-1.23,1.45,1.45,0,0,0-1.16-.54,1.49,1.49,0,0,0-1.44,1.16,2.72,2.72,0,0,0-.14.92v.61h-2.38Z"/><path class="cls-5" d="M158.55,225.76c-2.26-1.82-3.44-2.72-4.74-5.28-1.32,2.56-2.51,3.45-4.78,5.25-3.55,2.81-1.6,6.51,1.17,6.7a3.62,3.62,0,0,0,3.26-1.89,17.68,17.68,0,0,1-.86,3.74h2.34a17.68,17.68,0,0,1-.84-3.74,3.62,3.62,0,0,0,3.24,1.91C160.11,232.28,162.09,228.6,158.55,225.76Z"/><path class="cls-5" d="M181.58,241.19c-3.55-2.85-5.41-4.27-7.46-8.3-2.07,4-3.94,5.42-7.51,8.25-5.58,4.42-2.51,10.23,1.84,10.52a5.69,5.69,0,0,0,5.12-3,27.86,27.86,0,0,1-1.36,5.87h3.68a27.58,27.58,0,0,1-1.32-5.88,5.68,5.68,0,0,0,5.1,3C184,251.43,187.13,245.65,181.58,241.19Z"/><path class="cls-1" d="M7.88,199.46h32a6.06,6.06,0,0,1,6,6v50.21a6.06,6.06,0,0,1-6,6h-32a6.06,6.06,0,0,1-6-6V205.5A6.05,6.05,0,0,1,7.88,199.46Z"/><path class="cls-2" d="M5.19,198.19H39.52a4.76,4.76,0,0,1,4.75,4.75v52.48a4.76,4.76,0,0,1-4.75,4.75H5.19a4.76,4.76,0,0,1-4.75-4.75V202.94A4.76,4.76,0,0,1,5.19,198.19Z"/><path class="cls-3" d="M39.52,198.63H5.19a4.32,4.32,0,0,0-4.3,4.3v52.48a4.32,4.32,0,0,0,4.3,4.3H39.52a4.32,4.32,0,0,0,4.3-4.3V202.94a4.32,4.32,0,0,0-4.3-4.3Zm-34.33-.89H39.52a5.21,5.21,0,0,1,5.19,5.19v52.48a5.21,5.21,0,0,1-5.19,5.19H5.19A5.21,5.21,0,0,1,0,255.42V202.94a5.21,5.21,0,0,1,5.19-5.19Z"/><path class="cls-5" d="M9.76,214.15q1.62,0,1.62-1.51v-.93q0-2.41-2.51-2.41v-2a2.47,2.47,0,0,0,2-.76,2.82,2.82,0,0,0,.6-1.92v-.36q0-1.53-1.35-1.53a1.2,1.2,0,0,0-1.1.57,2.2,2.2,0,0,0-.26,1.13v.41H6.46v-.36a4.19,4.19,0,0,1,.85-2.72,3.27,3.27,0,0,1,2.71-1.2,3.38,3.38,0,0,1,2.65,1.12,3.66,3.66,0,0,1,.9,2.52v.66a3.84,3.84,0,0,1-.87,2.52,3.62,3.62,0,0,1-.87.76,3.92,3.92,0,0,1,1.62,1.78,3.38,3.38,0,0,1,.3,1.48v1.23a3.73,3.73,0,0,1-1.19,2.85,3.84,3.84,0,0,1-2.73,1.07,3.72,3.72,0,0,1-3.73-3.73v-.39l2.25-.17,0,.55a1.51,1.51,0,0,0,.42,1A1.28,1.28,0,0,0,9.76,214.15Z"/><path class="cls-5" d="M14.55,225.76c-2.26-1.82-3.44-2.72-4.74-5.28C8.49,223,7.3,223.93,5,225.73c-3.55,2.81-1.6,6.51,1.17,6.7a3.62,3.62,0,0,0,3.26-1.89,17.68,17.68,0,0,1-.86,3.74h2.34a17.65,17.65,0,0,1-.84-3.74,3.62,3.62,0,0,0,3.24,1.91C16.11,232.28,18.09,228.6,14.55,225.76Z"/><path class="cls-5" d="M37.58,241.19c-3.55-2.85-5.41-4.27-7.45-8.3-2.07,4-3.94,5.42-7.5,8.25-5.58,4.42-2.51,10.23,1.84,10.52a5.69,5.69,0,0,0,5.12-3,27.86,27.86,0,0,1-1.36,5.87H31.9a27.58,27.58,0,0,1-1.32-5.88,5.68,5.68,0,0,0,5.1,3C40,251.43,43.13,245.64,37.58,241.19Z"/><path class="cls-1" d="M199.88,199.46h32a6.06,6.06,0,0,1,6,6v50.21a6.06,6.06,0,0,1-6,6h-32a6.06,6.06,0,0,1-6-6V205.5A6.05,6.05,0,0,1,199.88,199.46Z"/><path class="cls-2" d="M197.19,198.19h34.32a4.76,4.76,0,0,1,4.75,4.75v52.48a4.76,4.76,0,0,1-4.75,4.75H197.19a4.76,4.76,0,0,1-4.75-4.75V202.94A4.76,4.76,0,0,1,197.19,198.19Z"/><path class="cls-3" d="M231.52,198.63H197.19a4.32,4.32,0,0,0-4.3,4.3v52.48a4.32,4.32,0,0,0,4.3,4.3h34.33a4.32,4.32,0,0,0,4.3-4.3V202.94a4.32,4.32,0,0,0-4.3-4.3Zm-34.32-.89h34.32a5.21,5.21,0,0,1,5.19,5.19v52.48a5.21,5.21,0,0,1-5.19,5.19H197.19a5.21,5.21,0,0,1-5.19-5.19V202.94a5.21,5.21,0,0,1,5.19-5.19Z"/><path class="cls-1" d="M205.35,225.05a3.26,3.26,0,0,0-1.34.32,3.22,3.22,0,1,0-4.21,0,3.29,3.29,0,1,0,1.75,3.89,24,24,0,0,1-1.12,5h2.95a23.84,23.84,0,0,1-1.12-5,3.3,3.3,0,0,0,2.56,2.32h0l.13,0H205l.23,0h.08a3.3,3.3,0,0,0,3.22-3.29V228h0v0h0v-.21h0v-.07h0v-.07h0v-.06l0-.07v-.2l0,0v0l0-.06h0l0-.06h0l0-.06h0l0-.06h0l0,0v0l0,0,0,0,0,0,0,0v0l0,0v0l0-.05h0l0-.06h0l0-.06h0l0,0h0l0,0h0l-.08-.1h0l0,0,0,0,0,0h0l0,0h0l0,0h0l0,0h0l0,0h0l0,0,0,0,0,0,0,0,0,0,0,0,0,0,0,0h0l0,0h0l-.06,0h0l-.06,0h0l-.05,0h0l0,0h0l0,0,0,0,0,0h0l0,0,0,0h0l-.05,0h0l-.06,0h0l-.06,0h0l-.06,0h0l-.05,0h0l0,0h0l-.06,0h-.18l-.07,0h-.07A3.87,3.87,0,0,0,205.35,225.05Z"/><path class="cls-1" d="M227.54,240.06a5.1,5.1,0,0,0-2.11.51,5.06,5.06,0,1,0-6.61,0,5.18,5.18,0,1,0,2.75,6.12c-.27,1.9-.92,6.1-1.76,7.89h4.63c-.84-1.79-1.49-6-1.76-7.89a5.19,5.19,0,0,0,4,3.64h0l.2,0H227l.37,0h.14a5.18,5.18,0,0,0,5.06-5.18v-.81l0-.1h0l0-.11h0l0-.11h0l0-.1,0-.11v0l0-.07,0-.05,0-.05,0-.07v0l0-.08v0l0-.09h0l0-.1h0l0-.1h0l0-.09v0l0-.07,0,0,0-.06,0,0,0,0,0-.06,0,0,0-.07v0l0-.08h0l-.06-.09h0l-.06-.09h0l-.06-.08v0l0-.07h0l-.12-.16h0l0-.05,0,0-.05-.06,0,0-.06-.07h0l-.07-.08h0l-.08-.08h0l-.07-.07,0,0-.06-.06,0,0-.05,0,0,0,0,0-.05,0,0,0-.06,0,0,0-.08-.06h0l-.09-.06h0l-.09-.06h0l-.08-.05h0l0,0-.07,0h0l-.06,0,0,0-.05,0h0l-.08,0-.07,0h0l-.08,0h0l-.1,0h0l-.1,0h0l-.09,0h0l-.08,0h0l-.07,0,0,0h0l-.09,0h-.07l-.08,0h0l-.09,0h0l-.11,0h0l-.11,0A5.33,5.33,0,0,0,227.54,240.06Z"/><path class="cls-1" d="M202,210.7v-5l-2,5Zm-4.26,0,4.26-10.14h2.41V210.7H206v2.43h-1.55v3.43h-2.41v-3.43h-4.27Z"/></g></g></svg>